SplineFontDB: 3.0
FontName: AyannaNarrowTamil-Light
FullName: AyannaNarrow
FamilyName: AyannaNarrow
OS2StyleName: "regular"
Weight: Light
Copyright: Licensed under the SIL Open Font License 1.1 (see file OFL.txt)
Version: pre
ItalicAngle: 0
UnderlinePosition: 0
UnderlineWidth: 0
Ascent: 819
Descent: 205
InvalidEm: 1
UFOAscent: 900
UFODescent: -400
LayerCount: 2
Layer: 0 0 "Back" 1
Layer: 1 0 "Fore" 0
PreferredKerning: 4
FSType: 0
OS2Version: 0
OS2_WeightWidthSlopeOnly: 0
OS2_UseTypoMetrics: 0
CreationTime: 1435046519
ModificationTime: 1440390184
PfmFamily: 16
TTFWeight: 400
TTFWidth: 5
LineGap: 0
VLineGap: 0
Panose: 2 0 6 0 0 0 0 0 0 0
OS2TypoAscent: 0
OS2TypoAOffset: 1
OS2TypoDescent: 0
OS2TypoDOffset: 1
OS2TypoLinegap: 0
OS2WinAscent: 0
OS2WinAOffset: 1
OS2WinDescent: 0
OS2WinDOffset: 1
HheadAscent: 0
HheadAOffset: 1
HheadDescent: 0
HheadDOffset: 1
OS2SubXSize: 861
OS2SubYSize: 799
OS2SubXOff: 0
OS2SubYOff: 246
OS2SupXSize: 861
OS2SupYSize: 799
OS2SupXOff: 0
OS2SupYOff: 615
OS2StrikeYSize: 61
OS2StrikeYPos: 307
OS2CapHeight: 720
OS2XHeight: 520
OS2Vendor: 'ACE '
OS2CodePages: 00000001.00000000
OS2UnicodeRanges: 80108003.00002042.00000000.00000000
Lookup: 260 0 0 "Mark to base attachment lookup 0" { "Mark to base attachment lookup 0-1"  } ['abvm' ('DFLT' <'dflt' > 'latn' <'dflt' > 'taml' <'dflt' > ) ]
MarkAttachClasses: 1
DEI: 91125
LangName: 1033 "Licensed under the SIL Open Font License 1.1 (see file OFL.txt)" "" "Medium" "" "" "Version 2.5.0" "" "" "" "" "" "" "" "" "" "" "ayanna-tamil" "tamil"
PickledDataWithLists: "(dp1
S'com.schriftgestaltung.weight'
p2
S'Light'
p3
sS'public.glyphOrder'
p4
(lp5
S'tm_A'
p6
aS'tm_Aa'
p7
aS'tm_Ai'
p8
aS'tm_Au'
p9
aS'tm_Ca'
p10
aS'tm_E'
p11
aS'tm_Ee'
p12
aS'tm_I'
p13
aS'tm_Ii'
p14
aS'tm_Ja'
p15
aS'tm_Ka'
p16
aS'tm_La'
p17
aS'tm_Lla'
p18
aS'tm_Llla'
p19
aS'tm_Ma'
p20
aS'tm_Na'
p21
aS'tm_Nga'
p22
aS'tm_Nna'
p23
aS'tm_Nnna'
p24
aS'tm_Nya'
p25
aS'tm_O'
p26
aS'tm_Oo'
p27
aS'tm_Pa'
p28
aS'tm_Ra'
p29
aS'tm_Rra'
p30
aS'tm_Sha'
p31

StartChar: tml_A
Encoding: 256 2949 0
GlifName: tm_A_
Width: 796
VWidth: 0
Flags: HW
HStem: 180 35<137.459 678> 298 35<208.613 311.687> 492 37<218.768 373.274>
VStem: 145 37<359.385 458.572> 524 36<81.9774 298.501> 670 36<-129 180 215 521> 670 8<180 215>
LayerCount: 2
Back
Fore
SplineSet
690 -119 m 257xf940
 690 521 l 257
 726 521 l 257
 726 -119 l 257
 690 -119 l 257xf940
50 64 m 256
 50 167 118.318181818 215 217 215 c 258
 698 215 l 257
 698 181 l 257
 217 181 l 258
 134.847457627 181 86 145 86 64 c 256
 86 -63 203 -100 298 -100 c 256
 421.051724138 -100 542 -11.3790849673 542 198 c 0
 542 333.397923875 489.922705314 499 346 499 c 0
 303.961038961 499 263 470.75862069 263 408 c 0
 263 362 287 322 337 322 c 0
 386 322 401 360 402 409 c 0
 402 441.845238095 387.428571429 508.64509804 334 498 c 257
 368 527 l 257
 429.061708861 511.473684211 438 452.473684211 438 409 c 0
 438 328 394.574257426 288 336 288 c 0
 267 288 227 340 227 408 c 0
 227 491 281 536 348 536 c 0
 508.147058824 537.021212121 578.029411765 354.224242424 579 199 c 0xfcc0
 580.036764706 8.01470588235 476.360294118 -134 297 -134 c 256
 133 -134 50 -49 50 64 c 256
EndSplineSet
PickledDataWithLists: "(dp1
S'com.fontlab.hintData'
p2
(dp3
S'vhints'
p4
(lp5
(dp6
S'position'
p7
I60
sS'width'
p8
I32
sa(dp9
g7
I188
sg8
I32
sa(dp10
g7
I402
sg8
I32
sa(dp11
g7
I638
sg8
I33
sa(dp12
g7
I638
sg8
I11
sasS'hhints'
p13
(lp14
(dp15
g7
S'-134'
p16
sg8
I31
sa(dp17
g7
I132
sg8
I33
sa(dp18
g7
I240
sg8
I32
sa(dp19
g7
I454
sg8
I32
sass."
EndChar

StartChar: tml_E
Encoding: 257 2958 1
GlifName: tm_E_
Width: 596
VWidth: 0
Flags: HW
HStem: 0 21G<60 96.039 365 401.037> 510 35<97 366 401.933 502>
VStem: 60 36<0 510> 365 36<0 510>
LayerCount: 2
Back
SplineSet
36 239 m 260
 36 417.046875 140.021484375 543.703125 293 545 c 260
 296 450 l 260
 193.323242188 450 135 366.071289062 135 248 c 260
 135 154 153 66 222 66 c 260
 268 66 283 128 283 160 c 260
 283 206 262 251 217 251 c 260
 173 251 138 221 121 196 c 261
 110.874023438 218.708007812 97.0810546875 250.600585938 86 278 c 261
 117 315 164 345 221 345 c 260
 332 345 383 249 383 160 c 260
 383 52 322 -24 223 -24 c 260
 107 -24 36 87 36 239 c 260
291 545 m 5
 635 545 l 5
 635 450 l 5
 535 450 l 5
 535 0 l 5
 430 0 l 5x3e
 430 450 l 5
 289 450 l 5
 291 545 l 5
EndSplineSet
Fore
SplineSet
40 248 m 260
 40 419.119205298 119 545 292 545 c 4
 291 510 l 260
 140 510 77 399.684210526 77 248 c 260
 77 116 108 18 181 18 c 260
 245 18 268 93 268 170 c 260
 268 235 242 312 175 312 c 260
 109 312 74 236 83 157 c 261
 60 183 l 261
 61 287 110 347 175 347 c 260
 257 347 304 265 304 170 c 260
 304 65 266 -17 181 -17 c 260
 85 -17 40 95 40 248 c 260
277 510 m 5
 283 545 l 5
 556 545 l 5
 556 510 l 5
 445.932617188 510 l 5
 445 0 l 5
 409 0 l 5
 410 510 l 5
 277 510 l 5
EndSplineSet
PickledDataWithLists: "(dp1
S'com.schriftgestaltung.Glyphs.ColorIndex'
p2
I6
sS'public.markColor'
p3
S'0,0.67,0.91,1'
p4
s."
EndChar

StartChar: tml_Ee
Encoding: 258 2959 2
GlifName: tm_E_e
Width: 659
VWidth: 0
Flags: HW
HStem: 0 21G<60 96.039 365 401.037> 510 35<97 366 401.933 502>
VStem: 60 36<0 510> 365 36<0 510>
LayerCount: 2
Back
SplineSet
554 0 m 261x7e
 299 -238.46875 l 261
 233 -170.46875 l 261
 449 32 l 261
 554 0 l 261x7e
263 520 m 1
 641 520 l 1
 641 417 l 1
 554 417 l 1
 554 0 l 1
 449 0 l 1
 449 417 l 1
 368 417 l 1
 263 520 l 1
179 192 m 256
 137.571289062 192 101.643554688 162.4921875 83 136 c 257
 39 197 l 257
 69.177734375 245.380859375 123.74609375 285 185 285 c 256
 269.942382812 285 337 218.286132812 337 126 c 256
 337 39.517578125 281.951171875 -23 185 -23 c 256
 69.048828125 -23 5 88.525390625 5 242 c 256
 5 402.34765625 95.1357421875 519.044921875 243 520 c 256
 407 520.002929688 l 257
 404 417 l 256
 244 417 l 256
 152.537109375 417 110 343.458984375 110 242 c 256
 110 149.443359375 128.03125 82 185 82 c 256
 211.740234375 82 238 104.709960938 238 136 c 256
 238 168.448242188 212.297851562 192 179 192 c 256
EndSplineSet
Fore
SplineSet
40 248 m 256
 40 419.119205298 119 545 292 545 c 0
 291 510 l 256
 140 510 77 399.684210526 77 248 c 256
 77 116 108 18 181 18 c 256
 245 18 268 93 268 170 c 256
 268 235 242 312 175 312 c 256
 109 312 74 236 83 157 c 257
 60 183 l 257
 61 287 110 347 175 347 c 256
 257 347 304 265 304 170 c 256
 304 65 266 -17 181 -17 c 256
 85 -17 40 95 40 248 c 256
277 510 m 1
 283 545 l 1
 556 545 l 1
 556 510 l 1
 445.932617188 510 l 1
 445 0 l 1
 409 0 l 1
 410 510 l 1
 277 510 l 1
183 -195 m 261
 409 15 l 261
 445 0 l 261
 206 -219 l 261
 183 -195 l 261
EndSplineSet
PickledDataWithLists: "(dp1
S'com.schriftgestaltung.Glyphs.ColorIndex'
p2
I6
sS'public.markColor'
p3
S'0,0.67,0.91,1'
p4
s."
EndChar

StartChar: tml_I
Encoding: 259 2951 3
Width: 0
Flags: W
LayerCount: 2
Back
SplineSet
327 332 m 1
 327 308 334.166666667 287.666666667 348.5 271 c 128
 362.833333333 254.333333333 380.333333333 246 401 246 c 256
 421.666666667 246 439.166666667 254.333333333 453.5 271 c 128
 467.833333333 287.666666667 475 308 475 332 c 256
 475 356 467.666666667 376.333333333 453 393 c 128
 438.333333333 409.666666667 421 418 401 418 c 0
 380.333333333 418 362.833333333 409.666666667 348.5 393 c 128
 334.166666667 376.333333333 327 356 327 332 c 1
 327 332 l 1
7 -172 m 1
 7 -132.666666667 20.3333333333 -95.3333333333 47 -60 c 128
 73.6666666667 -24.6666666667 109.666666667 3.66666666667 155 25 c 1
 127 74.3333333333 105.666666667 126 91 180 c 128
 76.3333333333 234 69 288.666666667 69 344 c 0
 69 469.333333333 112.166666667 576.5 198.5 665.5 c 128
 284.833333333 754.5 389 799 511 799 c 0
 619.666666667 799 712.5 758.166666667 789.5 676.5 c 128
 866.5 594.833333333 905 496.333333333 905 381 c 2
 905 0 l 1
 843 0 l 1
 843 381 l 2
 843 482.333333333 810.666666667 569.166666667 746 641.5 c 128
 681.333333333 713.833333333 603 750 511 750 c 0
 406.333333333 750 316.666666667 710.5 242 631.5 c 128
 167.333333333 552.5 130 456.666666667 130 344 c 0
 130 293.333333333 136.333333333 244 149 196 c 128
 161.666666667 148 180 103 204 61 c 1
 239.333333333 81.6666666667 279.666666667 97.1666666667 325 107.5 c 128
 370.333333333 117.833333333 420.333333333 123 475 123 c 0
 497 123 519.5 121 542.5 117 c 128
 565.5 113 588 106.666666667 610 98 c 1
 616 120.666666667 620.5 145.5 623.5 172.5 c 128
 626.5 199.5 628 228 628 258 c 0
 628 312 613 358.333333333 583 397 c 128
 553 435.666666667 517 455 475 455 c 2
 438 455 l 1
 464 445.666666667 484.833333333 429.833333333 500.5 407.5 c 128
 516.166666667 385.166666667 524 360 524 332 c 0
 524 294 511.833333333 262 487.5 236 c 128
 463.166666667 210 434.333333333 197 401 197 c 256
 367.666666667 197 338.833333333 210 314.5 236 c 128
 290.166666667 262 278 294 278 332 c 0
 278 379.333333333 297.166666667 419.833333333 335.5 453.5 c 128
 373.833333333 487.166666667 420.333333333 504 475 504 c 0
 532.333333333 504 581.333333333 480 622 432 c 128
 662.666666667 384 683 326 683 258 c 0
 683 223.333333333 681 191.5 677 162.5 c 128
 673 133.5 667 108 659 86 c 1
 710.333333333 67.3333333333 751.833333333 35.5 783.5 -9.5 c 128
 815.166666667 -54.5 831 -104.666666667 831 -160 c 0
 831 -200.666666667 814.166666667 -235.333333333 780.5 -264 c 128
 746.833333333 -292.666666667 706.333333333 -307 659 -307 c 0
 613 -307 568.666666667 -299.666666667 526 -285 c 128
 483.333333333 -270.333333333 445.666666667 -249 413 -221 c 1
 380.333333333 -249 340.666666667 -270.333333333 294 -285 c 128
 247.333333333 -299.666666667 197 -307 143 -307 c 0
 105 -307 72.8333333333 -294 46.5 -268 c 128
 20.1666666667 -242 7 -210 7 -172 c 1
 7 -172 l 1
69 -172 m 1
 69 -196 76.1666666667 -216.333333333 90.5 -233 c 128
 104.833333333 -249.666666667 122.333333333 -258 143 -258 c 0
 181.666666667 -258 219.333333333 -252.333333333 256 -241 c 128
 292.666666667 -229.666666667 326.666666667 -213 358 -191 c 1
 316 -161.666666667 280 -132 250 -102 c 128
 220 -72 196.333333333 -42 179 -12 c 1
 145.666666667 -29.3333333333 119 -52.3333333333 99 -81 c 128
 79 -109.666666667 69 -140 69 -172 c 1
 69 -172 l 1
241 12 m 1
 259.666666667 -20.6666666667 283.5 -51.1666666667 312.5 -79.5 c 128
 341.5 -107.833333333 375 -132.666666667 413 -154 c 1
 455.666666667 -124 491.666666667 -91.6666666667 521 -57 c 128
 550.333333333 -22.3333333333 571.666666667 13 585 49 c 1
 563 57 542.5 63.1666666667 523.5 67.5 c 128
 504.5 71.8333333333 488.333333333 74 475 74 c 0
 433 74 392.333333333 68.8333333333 353 58.5 c 128
 313.666666667 48.1666666667 276.333333333 32.6666666667 241 12 c 1
 241 12 l 1
462 -191 m 1
 500.666666667 -213 536.666666667 -229.666666667 570 -241 c 128
 603.333333333 -252.333333333 633 -258 659 -258 c 0
 689 -258 715 -248.333333333 737 -229 c 128
 759 -209.666666667 770 -186.666666667 770 -160 c 0
 770 -116 757.666666667 -75.8333333333 733 -39.5 c 128
 708.333333333 -3.16666666667 675.333333333 22.3333333333 634 37 c 1
 616.666666667 -9.66666666667 593.5 -52.5 564.5 -91.5 c 128
 535.5 -130.5 501.333333333 -163.666666667 462 -191 c 1
 462 -191 l 1
EndSplineSet
Fore
EndChar

StartChar: tml_Ii
Encoding: 260 2952 4
GlifName: tm_I_i
Width: 542
VWidth: 0
Flags: HW
HStem: 0 21G<70 106.041 375 411.038> 203.7 66.5996<221.265 283.735 486.265 548.735> 485 35<107 376 411.933 572>
VStem: 70 36<0 485> 219.2 66.5996<205.765 268.235> 375 36<0 485> 484.2 66.5996<205.765 268.235>
LayerCount: 2
Back
SplineSet
207.200195312 277 m 260
 207.200195312 294.999894426 222.500105574 310.299804688 240.5 310.299804688 c 260
 258.499894426 310.299804688 273.799804688 294.999894426 273.799804688 277 c 260
 273.799804688 259.000105574 258.499894426 243.700195312 240.5 243.700195312 c 260
 222.500105574 243.700195312 207.200195312 259.000105574 207.200195312 277 c 260
422.200195312 277 m 260
 422.200195312 294.999894426 437.500105574 310.299804688 455.5 310.299804688 c 260
 473.499894426 310.299804688 488.799804688 294.999894426 488.799804688 277 c 260
 488.799804688 259.000105574 473.499894426 243.700195312 455.5 243.700195312 c 260
 437.500105574 243.700195312 422.200195312 259.000105574 422.200195312 277 c 260
EndSplineSet
Fore
SplineSet
207.200195312 277 m 260
 207.200195312 259.000105574 222.500105574 243.700195312 240.5 243.700195312 c 260
 258.499894426 243.700195312 273.799804688 259.000105574 273.799804688 277 c 260
 273.799804688 294.999894426 258.499894426 310.299804688 240.5 310.299804688 c 260
 222.500105574 310.299804688 207.200195312 294.999894426 207.200195312 277 c 260
422.200195312 277 m 260
 422.200195312 259.000105574 437.500105574 243.700195312 455.5 243.700195312 c 260
 473.499894426 243.700195312 488.799804688 259.000105574 488.799804688 277 c 260
 488.799804688 294.999894426 473.499894426 310.299804688 455.5 310.299804688 c 260
 437.500105574 310.299804688 422.200195312 294.999894426 422.200195312 277 c 260
338 0 m 1
 339 530 l 1
 375 530 l 1
 374 0 l 1
 338 0 l 1
70 0 m 1
 71 550 l 1
 512 550 l 1
 512 515 l 1
 107 515 l 1
 106 0 l 1
 70 0 l 1
EndSplineSet
PickledDataWithLists: "(dp1
S'com.schriftgestaltung.Glyphs.ColorIndex'
p2
I6
sS'public.markColor'
p3
S'0,0.67,0.91,1'
p4
s."
EndChar

StartChar: tml_Lla
Encoding: 262 2995 6
GlifName: tm_L_la
Width: 892
VWidth: 0
Flags: HMW
VStem: 40 37<115.107 363.81> 289 37<58.919 187.892> 441 35<0 485> 715 36<0 485>
AnchorPoint: "tml_virama" 449 0 basechar 0
LayerCount: 2
Back
SplineSet
424 0 m 1
 424 545 l 1
 853 545 l 1
 853 450 l 1
 753 450 l 1
 753 0 l 1
 648 0 l 1
 648 450 l 1
 529 450 l 1
 529 0 l 1
 424 0 l 1
36 239 m 256
 36 437 119 554 272 555 c 256
 440 556 513 385 497 160 c 256
 424 197 l 256
 424 343 376 461 276 461 c 256
 173 461 129 367 129 249 c 256
 129 155 148 72 217 72 c 256
 265 72 282 122 282 154 c 256
 282 216 247 243 209 243 c 256
 149 243 108 191 91 166 c 257
 81 189 67 225 56 252 c 257
 87 289 139 339 216 339 c 256
 293 339 386 289 386 153 c 260
 386 45 324 -24 216 -24 c 256
 100 -24 36 87 36 239 c 256
EndSplineSet
Fore
SplineSet
93 248 m 256
 93 425.974855449 153.221366775 555.005859375 286.65234375 555.005859375 c 0
 408.338254094 555.005859375 461.899230541 433.762022604 461 269 c 261
 431 283 l 260
 431 419.97338403 380.746352413 520 286 520 c 256
 176.113207547 520 130 405.525179856 130 248 c 256
 130 115.544642857 161.111111111 18 234 18 c 256
 298.105263158 18 321 92.7540983607 321 170 c 256
 321 234.735294118 294.929192547 312 228 312 c 256
 162.425755199 312 127.049025481 235.656716418 136 157 c 257
 113 183 l 257
 113.821428571 287.057745461 162.561493715 347 228 347 c 256
 310.340425532 347 357 265.150289017 357 170 c 256
 357 65.1847133758 319.442748092 -17 234 -17 c 256
 137.863636364 -17 93 94.5250965251 93 248 c 256
430 0 m 1
 431 545 l 1
 832 545 l 1
 832 511 l 1
 712 511 l 1
 711 0 l 1
 675 0 l 1
 676 511 l 1
 467 511 l 1
 466 0 l 1
 430 0 l 1
EndSplineSet
PickledDataWithLists: "(dp1
S'com.schriftgestaltung.Glyphs.ColorIndex'
p2
I6
sS'public.markColor'
p3
S'0,0.67,0.91,1'
p4
s."
EndChar

StartChar: tml_Day
Encoding: 264 3059 8
GlifName: tm_N_aal
Width: 541
VWidth: 0
Flags: HW
VStem: -82 37<115.107 363.81> 167 37<58.919 187.892> 319 35<0 485> 593 36<0 485>
AnchorPoint: "tml_virama" 395 0 basechar 0
LayerCount: 2
Back
Fore
SplineSet
41 248 m 256
 41 425.974609375 101.221679688 555.005859375 234.65234375 555.005859375 c 0
 365.737304688 555.005859375 433.043945312 432.98046875 433.043945312 259.813476562 c 0
 433.043945312 254.234375 433.029296875 248.629882812 433 243 c 257
 396 257 l 256
 396 409 339.854492188 520 234 520 c 256
 124.11328125 520 78 405.525390625 78 248 c 256
 78 115.544921875 109.111328125 18 182 18 c 256
 246.10546875 18 269 92.75390625 269 170 c 256
 269 234.735351562 242.928710938 312 176 312 c 256
 110.42578125 312 75.048828125 235.65625 84 157 c 257
 61 183 l 257
 61.8212890625 287.057617188 110.561523438 347 176 347 c 256
 258.340820312 347 305 265.150390625 305 170 c 256
 305 65.1845703125 267.442382812 -17 182 -17 c 256
 85.86328125 -17 41 94.525390625 41 248 c 256
350 0 m 257x7f
 350 33 l 257
 383.206054688 112.02734375 396 198.248046875 396 261 c 256
 433 251 l 256
 432.596679688 202.00390625 423.533203125 121 392 35 c 257
 521 35 l 257
 521 0 l 257
 350 0 l 257x7f
EndSplineSet
PickledDataWithLists: "(dp1
S'com.schriftgestaltung.Glyphs.ColorIndex'
p2
I6
sS'public.markColor'
p3
S'0,0.67,0.91,1'
p4
s."
EndChar

StartChar: tml_Pa
Encoding: 267 2986 11
GlifName: tm_P_a
Width: 448
VWidth: 0
Flags: HW
HStem: 0 35<64 413>
VStem: 28 36<35 545> 413 36<35 545>
AnchorPoint: "tml_virama" 220 0 basechar 0
LayerCount: 2
Back
SplineSet
28 0 m 1
 28 543 l 1
 133 543 l 1
 133 100 l 1
 304 100 l 1
 304 543 l 1
 409 543 l 1
 409 0 l 1
 28 0 l 1
EndSplineSet
Fore
SplineSet
58 0 m 257
 58 545 l 257
 94 545 l 257
 94 34 l 257
 352 34 l 257
 352 545 l 257
 388 545 l 257
 388 0 l 257
 58 0 l 257
EndSplineSet
PickledDataWithLists: "(dp1
S'com.schriftgestaltung.Glyphs.ColorIndex'
p2
I5
sS'public.markColor'
p3
S'0.04,0.57,0.04,1'
p4
s."
EndChar

StartChar: tml_Ra
Encoding: 268 2992 12
GlifName: tm_R_a
Width: 485
VWidth: 0
Flags: HW
HStem: 0 21G<30 66.039 335 371.037> 510 35<67 336 371.933 472>
VStem: 30 36<0 510> 335 36<0 510>
AnchorPoint: "tml_virama" 206 0 basechar 0
LayerCount: 2
Back
SplineSet
58 0 m 5
 58 551 l 5
 487 551 l 5
 487 456 l 5
 387 456 l 5
 387 0 l 5
 282 0 l 5
 282 456 l 5
 163 456 l 5
 163 0 l 5
 58 0 l 5
69 -170 m 5
 284 32 l 5
 388 0 l 5
 133 -236 l 5
 69 -170 l 5
EndSplineSet
Fore
SplineSet
60 0 m 1
 61 545 l 1
 465 545 l 1
 465 510 l 1
 354.932617188 510 l 1
 354 0 l 1
 318 0 l 1
 319 510 l 1
 97 510 l 1
 96 0 l 1
 60 0 l 1
92 -195 m 261
 318 15 l 261
 354 0 l 261
 115 -219 l 261
 92 -195 l 261
EndSplineSet
PickledDataWithLists: "(dp1
S'com.schriftgestaltung.Glyphs.ColorIndex'
p2
I6
sS'public.markColor'
p3
S'0,0.67,0.91,1'
p4
sS'com.fontlab.hintData'
p5
(dp6
S'vhints'
p7
(lp8
(dp9
S'position'
p10
I80
sS'width'
p11
I33
sa(dp12
g10
I469
sg11
I33
sasS'hhints'
p13
(lp14
(dp15
g10
I0
sg11
I21
sa(dp16
g10
I485
sg11
I35
sass."
EndChar

StartChar: tml_Tta
Encoding: 271 2975 15
GlifName: tm_T_ta
Width: 643
VWidth: 0
Flags: HW
HStem: 0 35<105 673>
VStem: 70 35<35 545>
AnchorPoint: "tml_virama" 340 0 basechar 0
LayerCount: 2
Back
SplineSet
60 0 m 5
 60 544 l 5
 165 544 l 5
 165 103 l 5
 633 103 l 5
 633 0 l 5
 60 0 l 5
EndSplineSet
Fore
SplineSet
70 0 m 257
 70 545 l 257
 105 545 l 257
 105 34 l 257
 593 34 l 257
 593 0 l 257
 70 0 l 257
EndSplineSet
PickledDataWithLists: "(dp1
S'com.schriftgestaltung.Glyphs.ColorIndex'
p2
I6
sS'public.markColor'
p3
S'0,0.67,0.91,1'
p4
s."
EndChar

StartChar: tml_Va
Encoding: 273 2997 17
GlifName: tm_V_a
Width: 672
VWidth: 0
Flags: HW
VStem: -30 37<115.107 363.81> 219 37<58.919 187.892> 371 35<0 485> 645 36<0 485>
AnchorPoint: "tml_virama" 447 0 basechar 0
LayerCount: 2
Back
SplineSet
394 79 m 1
 410.058470868 118.09202454 424.133150136 167.229944385 424.342773438 256 c 0
 424.596406616 382.725754661 373.835902374 467 297 467 c 256
 200.04 467 153 370.339622642 153 249 c 256
 153 155 169.955844155 72 217 72 c 256
 261.631578947 72 270 134.523809524 270 173 c 256
 270 231.943181818 243 264 216 264 c 260
 178.440688731 264 151.649580615 215.405004241 162 143 c 257
 78 211 l 257
 99.7812566114 260.442477876 128.753785246 362 221 362 c 260
 289.942147436 362 369 306.712041885 369 170 c 256
 369 51.6271186441 312.487179487 -24 217 -24 c 256
 115.063379356 -24 54 87 54 239 c 256
 54 440.759493671 143.999788781 560.060824289 297 561 c 256
 431.211064682 561.852604793 525.719489942 437.063338442 525.749023438 258 c 0
 525.779989633 116.441529791 482 57 482 57 c 1
 394 79 l 1
394 79 m 257
 499 95 l 257
 603 95 l 257
 603 545 l 257
 708 545 l 257
 708 0 l 257
 395 0 l 257
 394 79 l 257
EndSplineSet
Fore
SplineSet
93 248 m 260
 93 425.974855449 153.221366775 555.005859375 286.65234375 555.005859375 c 4
 417.73765697 555.005859375 485.043945312 432.98046875 485.043945312 259.813476562 c 4
 485.043945312 254.234375 485.029296875 248.629882812 485 243 c 261
 448 257 l 260
 448 409 391.854545455 520 286 520 c 260
 176.113207547 520 130 405.525179856 130 248 c 260
 130 115.544642857 161.111111111 18 234 18 c 260
 298.105263158 18 321 92.7540983607 321 170 c 260
 321 234.735294118 294.929192547 312 228 312 c 260
 162.425755199 312 127.049025481 235.656716418 136 157 c 261
 113 183 l 261
 113.821428571 287.057745461 162.561493715 347 228 347 c 260
 310.340425532 347 357 265.150289017 357 170 c 260
 357 65.1847133758 319.442748092 -17 234 -17 c 260
 137.863636364 -17 93 94.5250965251 93 248 c 260
402 0 m 261x7f
 402 33 l 261
 435.205971928 112.02734375 448 198.248046875 448 261 c 260
 485 251 l 260
 484.596469056 202.00390625 475.533490349 121 444 35 c 261
 595 35 l 257
 595 545 l 257
 631 545 l 257
 631 0 l 257
 402 0 l 261x7f
EndSplineSet
PickledDataWithLists: "(dp1
S'com.schriftgestaltung.Glyphs.ColorIndex'
p2
I5
sS'public.markColor'
p3
S'0.04,0.57,0.04,1'
p4
s."
EndChar

StartChar: tml_MatraAa
Encoding: 275 3006 19
GlifName: tm_V_owelA_a
Width: 485
VWidth: 0
Flags: HW
HStem: 0 21G<60 96.039 365 401.037> 510 35<97 366 401.933 502>
VStem: 60 36<0 510> 365 36<0 510>
LayerCount: 2
Back
SplineSet
40 0 m 5
 40 545 l 5
 469 545 l 5
 469 450 l 5
 369 450 l 5
 369 0 l 5
 264 0 l 5
 264 450 l 5
 145 450 l 5
 145 0 l 5
 40 0 l 5
EndSplineSet
Fore
SplineSet
60 0 m 1
 61 545 l 1
 465 545 l 1
 465 510 l 1
 354.932617188 510 l 1
 354 0 l 1
 318 0 l 1
 319 510 l 1
 97 510 l 1
 96 0 l 1
 60 0 l 1
EndSplineSet
PickledDataWithLists: "(dp1
S'com.schriftgestaltung.Glyphs.ColorIndex'
p2
I6
sS'public.markColor'
p3
S'0,0.67,0.91,1'
p4
s."
EndChar

StartChar: tml_Ya
Encoding: 276 2991 20
Width: 549
VWidth: 0
GlyphClass: 2
Flags: HW
HStem: 0 35<-58 291>
VStem: -94 36<35 545> 291 36<35 545>
AnchorPoint: "tml_virama" 296 0 basechar 0
LayerCount: 2
Back
SplineSet
84 -17 m 1048
-81 167 m 262,10,11
 -81 545 l 260,9,-1
 24 545 l 261,8,-1
 24 161 l 262,7,-1
 24 96.4267578125 46.5595703125 80 83 80 c 261,7,8
 165.642578125 80 184.141601562 134.143554688 184 222 c 4,5,6
 258.749023438 258 l 5,4,-1
 259.033203125 74.6162109375 178.877929688 -16.693359375 84 -17 c 4,0,0
 -48.2451171875 -17.5703125 -81 56.6220703125 -81 167 c 262,10,11
184 0 m 1,28,-1
 184 545 l 1,27,-1
 289 545 l 1,36,-1
 289 95 l 1,35,-1
 408 95 l 1,34,-1
 408 545 l 1,33,-1
 513 545 l 1,32,-1
 513 0 l 1,29,-1
 184 0 l 1,28,-1
EndSplineSet
Fore
SplineSet
11 157 m 258
 11 545 l 256
 44 545 l 257
 44 151 l 258
 44 44.17578125 78.412109375 17 134 17 c 257
 209.278320312 17 226.12890625 83.7263454861 226 192 c 0
 258.749023438 208 l 1
 258.952148438 58.6256843066 221.571289062 -15.6966240876 134 -16 c 0
 35.416015625 -16.4287109375 11 53.220703125 11 157 c 258
226 0 m 257
 226 545 l 257
 262 545 l 257
 262 34 l 257
 470 34 l 257
 470 545 l 257
 506 545 l 257
 506 0 l 257
 412.666992188 0 319.333007812 0 226 0 c 257
EndSplineSet
EndChar

StartChar: tml_Seven
Encoding: 277 3053 21
Width: 516
VWidth: 0
Flags: HW
HStem: 0 21G<60 96.039 365 401.037> 510 35<97 366 401.933 502>
VStem: 60 36<0 510> 365 36<0 510>
LayerCount: 2
Back
SplineSet
36 239 m 260
 36 417.046875 140.021484375 543.703125 293 545 c 260
 296 450 l 260
 193.323242188 450 135 366.071289062 135 248 c 260
 135 154 153 66 222 66 c 260
 268 66 283 128 283 160 c 260
 283 206 262 251 217 251 c 260
 173 251 138 221 121 196 c 261
 110.874023438 218.708007812 97.0810546875 250.600585938 86 278 c 261
 117 315 164 345 221 345 c 260
 332 345 383 249 383 160 c 260
 383 52 322 -24 223 -24 c 260
 107 -24 36 87 36 239 c 260
291 545 m 5
 546 545 l 5
 546 450 l 5
 546 450 l 5
 546 0 l 5
 441 0 l 5x3e
 441 450 l 5
 289 450 l 5
 291 545 l 5
EndSplineSet
Fore
SplineSet
40 248 m 260
 40 419.119205298 119 545 292 545 c 4
 291 510 l 260
 140 510 77 399.684210526 77 248 c 260
 77 116 108 18 181 18 c 260
 245 18 268 93 268 170 c 260
 268 235 242 312 175 312 c 260
 109 312 74 236 83 157 c 261
 60 183 l 261
 61 287 110 347 175 347 c 260
 257 347 304 265 304 170 c 260
 304 65 266 -17 181 -17 c 260
 85 -17 40 95 40 248 c 260
278 510 m 1
 284 545 l 1
 456 545 l 1
 455 0 l 1
 419 0 l 1
 420 510 l 1
 278 510 l 1
EndSplineSet
EndChar

StartChar: uni0031
Encoding: 278 49 22
Width: 226
Flags: W
HStem: 0 21G<120 154>
VStem: 120 34<0 548>
LayerCount: 2
Back
Fore
SplineSet
16 535 m 1
 122 590 l 1
 154 590 l 5
 154 0 l 5
 120 0 l 1
 120 548 l 1
 31 503 l 1
 16 535 l 1
EndSplineSet
EndChar

StartChar: uni0032
Encoding: 279 50 23
Width: 432
VWidth: 0
Flags: HW
HStem: 0 35<71 407> 562 35<136.097 277.836>
VStem: 20 31<446.225 470.444>
LayerCount: 2
Back
Fore
SplineSet
20 449 m 5
 42 526 115.888364162 597 210 597 c 4
 321.637931034 597 410.897836855 504.425287415 385 353 c 4
 359.457686027 197.253893496 153.300319489 187.479495268 79 35 c 5
 407 35 l 5
 407 0 l 5
 37 0 l 5
 37 33 l 5
 133.49693073 235.344827586 328.554802805 222.038750867 351 359 c 4
 373.65382781 492.967827909 302.264863285 561.482604303 211 562 c 4
 101.98403569 562.648606821 65 477.0390625 51 437 c 5
 20 449 l 5
EndSplineSet
EndChar

StartChar: uni0033
Encoding: 280 51 24
Width: 419
VWidth: 0
Flags: W
HStem: -7 35<126.628 275.291> 302 19<242 260.566> 562 35<129.986 273.666>
VStem: 20 31<111.004 133.775 446.225 473.514> 341.638 35.9355<89.2691 221.116 387.865 495.222>
LayerCount: 2
Back
Fore
SplineSet
20 131 m 1
 51 143 l 1
 64.125 106.1640625 98.7973464272 27.4349722811 201 28 c 0
 277.045430251 28.3872789767 338.79482197 72.506773646 341.637695312 147 c 0
 343.710368997 235.588114246 290.522707335 276.041717788 181 282 c 1
 181 321 l 1
 260.566381495 324.746787582 333.539645654 361.218289484 339 432 c 0
 342.952965363 500.518066294 290.960007233 561.420166906 201 562 c 0
 98.7975334594 562.648606821 64.125 477.0390625 51 437 c 1
 20 449 l 1
 40.8421052632 526 110.841608153 597 200 597 c 0
 311 597 376.620286243 520.748281683 374 432 c 0
 369.2 342.471698113 287.90201794 303.254248186 242 302 c 1
 334.692895875 294 378.941343966 222.705819327 377.573242188 147 c 0
 375.820563278 50.0130689394 286.207257176 -7 200 -7 c 0
 110.841608153 -7 40.8421052632 59.2027027027 20 131 c 1
EndSplineSet
EndChar

StartChar: tml_Aa
Encoding: 281 2950 25
Width: 1024
VWidth: 0
Flags: HW
HStem: 88 36<761.62 876.054> 180 35<137.459 678> 298 35<208.613 311.687> 492 37<218.768 373.274>
VStem: 145 37<359.385 458.572> 524 36<81.9772 298.501> 533 32<-201.785 -129.104> 670 36<-129 -127 215 521> 670 8<180 215> 940 34<-214.081 1.14906>
LayerCount: 2
Back
Fore
SplineSet
553 -130 m 1
 585 -126 l 1
 597.488989905 -277.29009901 674.50285707 -340.554043932 805 -329 c 0
 912.044311767 -319.522438629 960 -219.231950199 960 -114 c 0
 960 -5.07843137255 928.486372428 88 838 88 c 0
 755.993003757 88 727.031345141 29.2898443291 726 -20 c 1
 690 -53 l 1
 687.898762056 61.80190294 746.388208346 122 836 122 c 0
 955.856069439 122 994 4.82450004484 994 -110 c 0
 994 -256.871715638 925.114818761 -350.475135493 808 -361 c 0
 703.227361592 -370.4156985 571.644233306 -344.111268303 553 -130 c 1
EndSplineSet
Refer: 0 2949 N 1 0 0 1 -1 0 2
EndChar

StartChar: tml_Nya
Encoding: 282 2974 26
Width: 774
VWidth: 0
Flags: HWO
HStem: 0 21G<60 96.039 365 401.037> 510 35<97 366 401.933 502>
VStem: 60 36<0 510> 365 36<0 510>
LayerCount: 2
Back
Fore
SplineSet
152 248 m 256
 152 419.119205298 231 545 404 545 c 0
 403 510 l 256
 252 510 189 399.684210526 189 248 c 256
 189 116 220 18 293 18 c 256
 357 18 380 93 380 170 c 256
 380 235 354 312 287 312 c 256
 221 312 186 236 195 157 c 257
 172 183 l 257
 173 287 222 347 287 347 c 256
 369 347 416 265 416 170 c 256
 416 65 378 -17 293 -17 c 256
 197 -17 152 95 152 248 c 256
389 510 m 1
 395 545 l 1
 668 545 l 1
 668 510 l 1
 557.932617188 510 l 5
 557 0 l 5
 521 0 l 1
 522 510 l 1
 389 510 l 1
30.3232421875 242 m 0x9fe0
 29.9416178088 333.450237492 54.8388671875 428.994140625 112.5 531.002929688 c 1
 142.5 517 l 1
 86.546875 421.079101562 63.705969284 332.503907199 63.75 244 c 0
 63.8796915147 -36.1824876435 215.193215605 -135 422 -135 c 0
 618.311501143 -135 708.5 14.5914349323 708.5 158 c 0
 708.5 234.56827498 690.160301284 300 637.5 300 c 0
 601.707713815 300 581.223182914 275.605734871 569.807021713 242.000001523 c 0
 559.937732981 212.947793899 556.845807157 177.011276845 556.5 144 c 1
 529.5 164 l 1
 528.956545411 203.35032926 534.125487254 236.096548825 543.863497077 261.99997997 c 0
 561.723859089 309.509139025 594.954003462 334 636.5 334 c 0
 716.909567441 334 742.5 247.128662109 742.5 162 c 0
 742.5 -32.8534067821 624.452739353 -171 422 -171 c 0
 269.289295428 -171 31.721424754 -118.539755097 30.3232421875 242 c 0x9fe0
EndSplineSet
EndChar

StartChar: tml_Virama
Encoding: 283 3021 27
Width: 0
VWidth: 0
Flags: HW
HStem: 658 48<-23.9284 23.9284>
VStem: -24 48<658.072 705.928>
AnchorPoint: "tml_virama" 0 -0.299805 mark 0
LayerCount: 2
Back
Fore
SplineSet
-31.2001953125 682 m 0
 -31.2001953125 698.900105794 -16.9001057943 713.200195312 0 713.200195312 c 0
 16.9001057943 713.200195312 31.2001953125 698.900105794 31.2001953125 682 c 0
 31.2001953125 665.099894206 16.9001057943 650.799804688 0 650.799804688 c 0
 -16.9001057943 650.799804688 -31.2001953125 665.099894206 -31.2001953125 682 c 0
EndSplineSet
EndChar

StartChar: tml_Nnna
Encoding: 284 2985 28
Width: 835
VWidth: 0
Flags: HW
VStem: -123 37<115.107 363.81> 126 37<58.919 187.892> 278 35<0 485> 552 36<0 485>
AnchorPoint: "tml_virama" 404 0 basechar 0
LayerCount: 2
Back
SplineSet
289 556 m 5
 311 556 l 5
 311 461 l 5
 289 461 l 5
 289 556 l 5
289 461 m 260
 151.046875 461 96 367.583984375 96 249 c 260
 96 155 112.956054688 72 160 72 c 260
 204.631835938 72 213 134.5234375 213 173 c 260
 213 231.943359375 187 264 161 264 c 260
 122.049804688 264 94.2666015625 215.405273438 105 143 c 261
 21 211 l 261
 43.0859375 260.442382812 72.4638671875 362 166 362 c 260
 234.010742188 362 312 306.711914062 312 170 c 260
 312 51.626953125 255.487304688 -24 160 -24 c 260
 58.0634765625 -24 -3 87 -3 239 c 260
 -3 437.626953125 105.1484375 555.04296875 289 556 c 260
 289 461 l 260
308 556 m 260
 459.649414062 556 619 457.670898438 619 208 c 260
 619 50.59765625 576.403320312 -24 475 -24 c 260
 378.028320312 -24 330 53.3388671875 330 208 c 260
 330 413.654296875 409.397460938 544.872070312 594 546 c 261
 862 546 l 5
 862 451 l 5
 762 451 l 5
 762 0 l 5
 657 0 l 5
 657 451 l 5
 595 451 l 261
 479.397460938 451 435 358.591796875 435 208 c 260
 435 137.209960938 447.90234375 72 475 72 c 260
 502.305664062 72 513 129.956054688 513 207 c 260
 513 402.546875 398.958007812 461 308 461 c 260
 308 556 l 260
EndSplineSet
Fore
SplineSet
40 248 m 256
 40 422.489257812 118.2578125 550 291.65234375 550 c 0
 291 514 l 256
 140.2578125 514 77 402.05078125 77 248 c 256
 77 115.544921875 108.111328125 18 181 18 c 256
 245.10546875 18 268 92.75390625 268 170 c 256
 268 234.735351562 241.928710938 312 175 312 c 256
 109.42578125 312 74.048828125 235.65625 83 157 c 257
 60 183 l 257
 60.8212890625 287.057617188 109.561523438 347 175 347 c 256
 257.340820312 347 304 265.150390625 304 170 c 256
 304 65.1845703125 266.442382812 -17 181 -17 c 256
 84.86328125 -17 40 94.525390625 40 248 c 256
291 514 m 256
 291 550 l 256
 295.069335938 550.010742188 299.134760824 549.995109356 303 550 c 0
 451.732306985 550.17578125 576 436.227539062 576 216 c 260
 576 80.5615234375 538.315429688 -17 467 -17 c 260
 397.08984375 -17 358 83.2109375 358 221 c 260
 358 467.78125 501.09836238 545 660 545 c 256
 660 511 l 256
 527.236568981 511 395 450.33203125 395 221 c 260
 395 104.237304688 420.588867188 19 469 19 c 260xbfe0
 516.879882812 19 539 101.575195312 539 216 c 260
 539 406.838867188 437.673366066 514.590534056 304 514.502929688 c 0
 299.872070312 514.5 295.475585938 514 291 514 c 256
645 511 m 1
 657 545 l 1
 805 545 l 1
 805 511 l 1
 705 511 l 1
 705 1 l 1
 669 1 l 1x7f80
 669 511 l 1
 645 511 l 1
EndSplineSet
EndChar

StartChar: tml_Nna
Encoding: 285 2979 29
Width: 1115
VWidth: 0
Flags: HW
HStem: -17 36<143.421 245.433 469.066 560.029 829.066 920.029> 1 21G<1133 1169> 233 36<118.148 239.159> 510 35<168.684 420.838 522.262 777.842 970.396 1133 1169 1269>
VStem: 35 37<115.107 336.896> 284 37<58.919 187.892> 383 37<82.2038 314.454> 612 37<87.0299 299.216> 743 37<82.2038 310.325> 972 37<87.0299 299.216> 1133 36<1 510>
LayerCount: 2
Back
Fore
SplineSet
100 248 m 256
 100 422.489257812 178.2578125 550 351.65234375 550 c 0
 351 514 l 256
 200.2578125 514 137 402.05078125 137 248 c 256
 137 115.544921875 168.111328125 18 241 18 c 256
 305.10546875 18 328 92.75390625 328 170 c 256
 328 234.735351562 301.928710938 312 235 312 c 256
 169.42578125 312 134.048828125 235.65625 143 157 c 257
 120 183 l 257
 120.821289062 287.057617188 169.561523438 347 235 347 c 256
 317.340820312 347 364 265.150390625 364 170 c 256
 364 65.1845703125 326.442382812 -17 241 -17 c 256
 144.86328125 -17 100 94.525390625 100 248 c 256
351 514 m 256
 351 550 l 256
 355.069335938 550.010742188 359.134760834 549.995109356 363 550 c 0
 507.373851103 550.17578125 628 436.227539062 628 216 c 256
 628 80.5615234375 590.315429688 -17 519 -17 c 256
 449.08984375 -17 410 83.2109375 410 221 c 256
 410 467.78125 523.720552885 545 650 545 c 257
 719.528089888 545 888 507.280229128 888 216 c 256
 888 80.5615234375 850.315429688 -17 779 -17 c 256
 713.579486812 -17 677 83.2109375 677 221 c 256
 677 467.78125 811.095485277 545 960 545 c 256
 960 511 l 256
 836.755456488 511 714 450.33203125 714 221 c 256
 714 104.237304688 737.16829867 19 781 19 c 256xbfe0
 828.879882812 19 851 101.575195312 851 216 c 256
 851 449.28775162 730.530048526 511 650 511 c 257
 548.298201899 511 447 450.33203125 447 221 c 256
 447 104.237304688 472.588867188 19 521 19 c 256xbfe0
 568.879882812 19 591 101.575195312 591 216 c 256
 591 406.838867188 493.122783391 514.590534056 364 514.502929688 c 0
 359.872070312 514.5 355.475585938 514 351 514 c 256
925 511 m 1
 937 545 l 1
 1085 545 l 1
 1085 511 l 1
 985 511 l 1
 985 1 l 1
 949 1 l 1x7f80
 949 511 l 1
 925 511 l 1
EndSplineSet
EndChar

StartChar: tml_Ma
Encoding: 286 2990 30
Width: 572
VWidth: 0
Flags: HW
HStem: 0 35<94 543.505> 520 35<406.08 555.865>
VStem: 59 35<35 545> 316 35<7 463.14> 627 36<129.31 428.88>
AnchorPoint: "tml_virama" 253 -10 basechar 0
LayerCount: 2
Back
SplineSet
459 0 m 261
 426 95 l 261
 479.826171875 94.0146484375 496.095703125 161.565429688 496 251 c 260
 495.915474002 344.243580086 467.179096639 465 396 465 c 260
 360.290305397 465 354 422.291024344 354 359 c 260
 356 6 l 261
 257 7 l 260
 255 364 l 260
 255 492.949779613 288.101592318 560.338359112 395 561 c 260
 532.004473287 561.843670405 591.964591734 392.879928733 593 251 c 260
 594.401367188 78.625 550.383789062 0.30859375 459 0 c 261
60 0 m 261
 60 545 l 261
 165 545 l 261
 165 95 l 261
 433 95 l 261
 463 0 l 261
 60 0 l 261
EndSplineSet
Fore
SplineSet
234 434 m 256
 234 520.642561432 272.250976562 560.55584769 335 561 c 256
 450.5546875 561.84375 501.126953125 412.879882812 502 251 c 256
 502.860307836 78.6220703125 462.564103312 0.30859375 378 0 c 257
 375 35 l 257
 444.204199219 33.599609375 465.089648437 123.909179688 465 251 c 256
 464.890625 390.38671875 427.8203125 525 336 525 c 256
 293.233398438 525 269 493.45592591 269 424 c 256
 271 6 l 257
 236 7 l 256
 234 434 l 256
59 0 m 257
 59 545 l 257
 94 545 l 257
 94 35 l 257
 382 35 l 257
 382 0 l 257
 274.333639874 0 166.666360126 0 59 0 c 257
EndSplineSet
EndChar

StartChar: tml_Ssa
Encoding: 297 2999 41
Width: 834
VWidth: 0
GlyphClass: 2
Flags: HW
VStem: -108 37<115.107 363.81> 141 37<58.919 187.892> 293 35<0 485> 567 36<0 485>
AnchorPoint: "tml_virama" 422 0 basechar 0
LayerCount: 2
Back
Fore
SplineSet
38 248 m 256
 38 425.974609375 98.2216796875 555.005859375 231.65234375 555.005859375 c 0
 362.737304688 555.005859375 430.043945312 432.98046875 430.043945312 259.813476562 c 0
 430.043945312 254.234375 430.029296875 248.629882812 430 243 c 257
 393 257 l 256
 393 409 336.854492188 520 231 520 c 256
 121.11328125 520 75 405.525390625 75 248 c 256
 75 114.393138587 106.111328125 16 179 16 c 256
 243.10546875 16 266 91.7375102796 266 170 c 256
 266 235.19123432 239.928710938 313 173 313 c 256
 107.42578125 313 72.048828125 236.163709677 81 157 c 257
 57 187 l 257
 57.8284307065 288.519626524 106.992493207 347 173 347 c 256
 255.340820312 347 302 265.150390625 302 170 c 256
 302 65.1845703125 264.442382812 -17 179 -17 c 256
 82.86328125 -17 38 94.525390625 38 248 c 256
347 0 m 257x7f
 347 31 l 257
 380.206054688 110.720566064 393 197.697591146 393 261 c 256
 430 251 l 256
 429.596679688 201.550238715 420.533203125 119.796296296 389 33 c 257
 347 0 l 257x7f
468 421 m 4
 468 482.000063004 492.306625031 555.752590123 557 556 c 4
 632.329456676 556.288085938 644.476663961 481.7734375 644 430 c 5
 608 430 l 5
 608.510253906 496.983398438 584.734213007 521.512357489 558 522 c 4
 519.68359375 522.69890625 502.8191868 464.971168058 503 417 c 4
 503.341754782 326.329760742 551.431995951 260.441616873 618 261 c 4
 703.704258976 261.658992686 738 323.808510638 738 405 c 0
 764 395 l 0
 764 309.21530223 719.010163698 226.009227025 618 226 c 4
 553.0657075 225.993632269 468 283.314551272 468 421 c 4
608 -152 m 5
 608 434 l 261
 644 434 l 261
 644 -152 l 261
 608 -152 l 5
347 -1 m 257x7f
 347 31 l 257
 392 33 l 257
 738 33 l 257
 738 455 l 257
 774 455 l 257
 774 -1 l 257
 347 -1 l 257x7f
EndSplineSet
EndChar

StartChar: dottedcircle
Encoding: 367 9676 111
Width: 761
Flags: HW
HStem: -32 64<357.282 402.718> -15 64<261.313 306.233 455.767 501.717> 38 65<176.282 221.233 540.767 585.718> 126 64<125.282 170.748 591.767 636.718> 218 64<109.798 154.718 606.767 652.233> 311 64<125.282 170.748 591.767 636.718> 397 65<176.798 222.233 539.282 585.202> 452 64<261.313 306.233 455.767 501.717> 470 63<357.282 402.718>
VStem: 100 64<226.767 272.202> 116 63<135.282 180.202 320.282 365.718> 167 63<47.2825 93.202 406.282 452.202> 251 64<-5.71777 39.7173 461.282 506.718> 348 64<-23.233 22.7173 478.767 523.202> 447 64<-5.71777 39.7173 461.282 506.718> 532 63<47.2825 93.202 406.282 452.202> 583 63<135.282 180.202 320.282 365.718> 598 63<226.767 272.202>
LayerCount: 2
Back
Fore
SplineSet
348 501 m 4
 348 509.666666667 351 517.166666667 357 523.5 c 4
 363 529.833333333 370.666666667 533 380 533 c 260
 389.333333333 533 397 529.833333333 403 523.5 c 4
 409 517.166666667 412 509.666666667 412 501 c 4x1c8e
 412 491.666666667 409 484.166666667 403 478.5 c 4
 397 472.833333333 389.333333333 470 380 470 c 260
 370.666666667 470 363 472.833333333 357 478.5 c 4
 351 484.166666667 348 491.666666667 348 501 c 4
251 484 m 260
 251 493.333333333 254.333333333 501 261 507 c 4
 267.666666667 513 275.333333333 516 284 516 c 4
 293.333333333 516 300.833333333 513 306.5 507 c 4
 312.166666667 501 315 493.333333333 315 484 c 260
 315 474.666666667 312.166666667 467 306.5 461 c 4
 300.833333333 455 293.333333333 452 284 452 c 4x1d0e
 275.333333333 452 267.666666667 455 261 461 c 4
 254.333333333 467 251 474.666666667 251 484 c 260
447 484 m 260
 447 493.333333333 449.833333333 501 455.5 507 c 4
 461.166666667 513 468.666666667 516 478 516 c 4
 488 516 496 513 502 507 c 4
 508 501 511 493.333333333 511 484 c 260
 511 474.666666667 508 467 502 461 c 4
 496 455 488 452 478 452 c 4
 468.666666667 452 461.166666667 455 455.5 461 c 4
 449.833333333 467 447 474.666666667 447 484 c 260
167 429 m 260x1e1e
 167 438.333333333 170.166666667 446.166666667 176.5 452.5 c 4
 182.833333333 458.833333333 190.666666667 462 200 462 c 260
 209.333333333 462 216.833333333 459 222.5 453 c 4
 228.166666667 447 231 439 231 429 c 260
 231 419 228.166666667 411.166666667 222.5 405.5 c 4
 216.833333333 399.833333333 209.333333333 397 200 397 c 260
 190.666666667 397 182.833333333 400 176.5 406 c 4
 170.166666667 412 167 419.666666667 167 429 c 260x1e1e
530 429 m 260
 530 439 533 447 539 453 c 4
 545 459 552.333333333 462 561 462 c 4
 571 462 579.166666667 458.833333333 585.5 452.5 c 4
 591.833333333 446.166666667 595 438.333333333 595 429 c 260x1e0f
 595 419.666666667 591.833333333 412 585.5 406 c 4
 579.166666667 400 571 397 561 397 c 4
 552.333333333 397 545 399.833333333 539 405.5 c 4
 533 411.166666667 530 419 530 429 c 260
116 343 m 260x1c2e
 116 352.333333333 119 360 125 366 c 4
 131 372 138.666666667 375 148 375 c 4
 158 375 165.666666667 372 171 366 c 4
 176.333333333 360 179 352.333333333 179 343 c 260
 179 333.666666667 176.333333333 326 171 320 c 4
 165.666666667 314 158 311 148 311 c 4
 138.666666667 311 131 314 125 320 c 4
 119 326 116 333.666666667 116 343 c 260x1c2e
583 343 m 260
 583 352.333333333 585.833333333 360 591.5 366 c 4
 597.166666667 372 604.666666667 375 614 375 c 260
 623.333333333 375 631 372 637 366 c 4
 643 360 646 352.333333333 646 343 c 260x1c0e80
 646 333.666666667 643 326 637 320 c 4
 631 314 623.333333333 311 614 311 c 260
 604.666666667 311 597.166666667 314 591.5 320 c 4
 585.833333333 326 583 333.666666667 583 343 c 260
100 249 m 260x1c4e
 100 258.333333333 103.166666667 266.166666667 109.5 272.5 c 4
 115.833333333 278.833333333 123.333333333 282 132 282 c 4
 141.333333333 282 149 278.833333333 155 272.5 c 4
 161 266.166666667 164 258.333333333 164 249 c 260
 164 239.666666667 161 232.166666667 155 226.5 c 4
 149 220.833333333 141.333333333 218 132 218 c 4
 123.333333333 218 115.833333333 220.833333333 109.5 226.5 c 4
 103.166666667 232.166666667 100 239.666666667 100 249 c 260x1c4e
598 249 m 260
 598 258.333333333 600.833333333 266.166666667 606.5 272.5 c 4
 612.166666667 278.833333333 619.666666667 282 629 282 c 4
 639 282 646.833333333 278.833333333 652.5 272.5 c 4
 658.166666667 266.166666667 661 258.333333333 661 249 c 260x1c0e40
 661 239.666666667 658.166666667 232.166666667 652.5 226.5 c 4
 646.833333333 220.833333333 639 218 629 218 c 4
 619.666666667 218 612.166666667 220.833333333 606.5 226.5 c 4
 600.833333333 232.166666667 598 239.666666667 598 249 c 260
116 157 m 4x1c2e
 116 166.333333333 119 174.166666667 125 180.5 c 4
 131 186.833333333 138.666666667 190 148 190 c 4
 158 190 165.666666667 186.833333333 171 180.5 c 4
 176.333333333 174.166666667 179 166.333333333 179 157 c 4
 179 148.333333333 176.333333333 141 171 135 c 4
 165.666666667 129 158 126 148 126 c 4
 138.666666667 126 131 129 125 135 c 4
 119 141 116 148.333333333 116 157 c 4x1c2e
583 157 m 4
 583 166.333333333 585.833333333 174.166666667 591.5 180.5 c 4
 597.166666667 186.833333333 604.666666667 190 614 190 c 260
 623.333333333 190 631 186.833333333 637 180.5 c 4
 643 174.166666667 646 166.333333333 646 157 c 4x1c0e80
 646 148.333333333 643 141 637 135 c 4
 631 129 623.333333333 126 614 126 c 260
 604.666666667 126 597.166666667 129 591.5 135 c 4
 585.833333333 141 583 148.333333333 583 157 c 4
167 70 m 260x3c1e
 167 79.3333333333 170 87.1666666667 176 93.5 c 4
 182 99.8333333333 189.666666667 103 199 103 c 260
 208.333333333 103 215.833333333 99.8333333333 221.5 93.5 c 4
 227.166666667 87.1666666667 230 79.3333333333 230 70 c 260
 230 60.6666666667 227.166666667 53 221.5 47 c 4
 215.833333333 41 208.333333333 38 199 38 c 260
 189.666666667 38 182 41 176 47 c 4
 170 53 167 60.6666666667 167 70 c 260x3c1e
532 70 m 260
 532 79.3333333333 534.833333333 87.1666666667 540.5 93.5 c 4
 546.166666667 99.8333333333 553.666666667 103 563 103 c 260
 572.333333333 103 580 99.8333333333 586 93.5 c 4
 592 87.1666666667 595 79.3333333333 595 70 c 260x3c0f
 595 60.6666666667 592 53 586 47 c 4
 580 41 572.333333333 38 563 38 c 260
 553.666666667 38 546.166666667 41 540.5 47 c 4
 534.833333333 53 532 60.6666666667 532 70 c 260
251 16 m 4
 251 26 254.333333333 34 261 40 c 4
 267.666666667 46 275.333333333 49 284 49 c 4
 293.333333333 49 300.833333333 46 306.5 40 c 4
 312.166666667 34 315 26 315 16 c 4
 315 7.33333333333 312.166666667 0 306.5 -6 c 4
 300.833333333 -12 293.333333333 -15 284 -15 c 4x5c0e
 275.333333333 -15 267.666666667 -12 261 -6 c 4
 254.333333333 0 251 7.33333333333 251 16 c 4
447 16 m 4
 447 26 449.833333333 34 455.5 40 c 4
 461.166666667 46 468.666666667 49 478 49 c 4
 488 49 496 46 502 40 c 4
 508 34 511 26 511 16 c 4
 511 7.33333333333 508 0 502 -6 c 4
 496 -12 488 -15 478 -15 c 4
 468.666666667 -15 461.166666667 -12 455.5 -6 c 4
 449.833333333 0 447 7.33333333333 447 16 c 4
348 -1 m 4
 348 9 351 17 357 23 c 4
 363 29 370.666666667 32 380 32 c 260x9c0e
 389.333333333 32 397 29 403 23 c 4
 409 17 412 9 412 -1 c 4
 412 -10.3333333333 409 -17.8333333333 403 -23.5 c 4
 397 -29.1666666667 389.333333333 -32 380 -32 c 260
 370.666666667 -32 363 -29.1666666667 357 -23.5 c 4
 351 -17.8333333333 348 -10.3333333333 348 -1 c 4
EndSplineSet
EndChar

